PathFileType	4	(X/Y/Z)	21_coords_data.trc
DataRate	CameraRate	NumFrames	NumMarkers	Units	OrigDataRate	OrigDataStartFrame	OrigNumFrames
30.0	30.0	6	21	m	30.0	43	63
Frame#	Time	THUMB_TIP	THUMB_IP	THUMB_MCP	THUMB_CMC	INDEX_TIP	INDEX_DIP	INDEX_PIP	INDEX_MCP	MIDDLE_TIP	MIDDLE_DIP	MIDDLE_PIP	MIDDLE_MCP	RING_TIP	RING_DIP	RING_PIP	RING_MCP	PINKY_TIP	PINKY_DIP	PINKY_PIP	PINKY_MCP	WRIST
X1	Y1	Z1	X2	Y2	Z2	X3	Y3	Z3	X4	Y4	Z4	X5	Y5	Z5	X6	Y6	Z6	X7	Y7	Z7	X8	Y8	Z8	X9	Y9	Z9	X10	Y10	Z10	X11	Y11	Z11	X12	Y12	Z12	X13	Y13	Z13	X14	Y14	Z14	X15	Y15	Z15	X16	Y16	Z16	X17	Y17	Z17	X18	Y18	Z18	X19	Y19	Z19	X20	Y20	Z20	X21	Y21	Z21
42	1.4	-0.028267900466918947	-0.00990622043609619	0.8823770141601562	-0.038821998596191405	0.002749890089035034	0.9073259887695313	-0.05284920120239258	0.013000100135803223	0.9353510131835937	-0.06878170013427734	0.03425719833374023	0.9623280029296875	0.03263819885253906	0.04769179916381836	0.8964719848632813	0.010319299697875976	0.04539879989624023	0.88993798828125	-0.013564900398254394	0.04349660110473633	0.885698974609375	-0.05403200149536133	0.040842899322509764	0.9028300170898438	0.03380899810791015	0.06904940032958984	0.9088410034179687	0.01313379955291748	0.06977970123291016	0.897281005859375	-0.015738800048828126	0.070206298828125	0.8884630126953125	-0.05862020111083984	0.06460759735107421	0.9045770263671875	0.027183799743652343	0.08825050354003906	0.907448974609375	0.005571430206298828	0.09025170135498047	0.9001160278320313	-0.022469600677490233	0.09065959930419921	0.8960399780273437	-0.06034299850463867	0.08302369689941407	0.9142249755859375	0.0025515799522399904	0.11808899688720703	0.8952550048828125	-0.016003299713134765	0.11315399932861328	0.9035809936523438	-0.0334822998046875	0.10769999694824219	0.9113200073242187	-0.05810380172729492	0.09686969757080079	0.9276309814453125	-0.09979620361328125	0.053363800048828125	0.9816619873046875
43	1.4333333333333333	-0.026522199630737306	-0.005641499996185303	0.8820830078125	-0.03769680023193359	0.006563509941101074	0.9072239990234375	-0.052223400115966795	0.01624209976196289	0.9351209716796876	-0.0684749984741211	0.036872798919677735	0.9620150146484375	0.032572200775146484	0.052103099822998045	0.891718994140625	0.009751859664916993	0.04946229934692383	0.8871740112304688	-0.014364999771118164	0.04730059814453125	0.8844879760742187	-0.054109901428222654	0.04410029983520508	0.9026680297851563	0.034025299072265626	0.07401570129394532	0.9049970092773437	0.012583499908447265	0.0741636962890625	0.8948480224609375	-0.016684000015258788	0.0740176010131836	0.8875770263671875	-0.05897470092773437	0.06771649932861327	0.9046699829101562	0.02704319953918457	0.09281300354003906	0.9052990112304687	0.0050761399269104	0.09417230224609376	0.899030029296875	-0.023174699783325196	0.09397509765625	0.895760009765625	-0.060722400665283206	0.08602420043945312	0.91452099609375	0.0021309499740600583	0.12131500244140625	0.8959849853515625	-0.0163085994720459	0.11615499877929687	0.9043410034179687	-0.03379619979858398	0.11063500213623047	0.9119949951171875	-0.05830059814453125	0.09963099670410157	0.9280419921875	-0.09981999969482422	0.0554640007019043	0.9817969970703125
44	1.4666666666666666	-0.02533880043029785	-0.002100219964981079	0.8819110107421875	-0.03676779937744141	0.009691800117492676	0.9069979858398437	-0.05149620056152344	0.018961200714111327	0.9350419921875	-0.06794499969482422	0.03919469833374024	0.9621090087890625	0.03222100067138672	0.05638159942626953	0.8883480224609375	0.00932703971862793	0.053319301605224606	0.8851220092773437	-0.014887999534606934	0.05062360000610352	0.883510009765625	-0.05428829956054688	0.046749000549316404	0.9025579833984375	0.03348500061035156	0.07872699737548829	0.902125	0.011638400077819824	0.07831800079345703	0.8930780029296875	-0.01776609992980957	0.07738929748535156	0.8865490112304687	-0.05935689926147461	0.07028309631347657	0.9045040283203125	0.025944299697875976	0.09741739654541015	0.9033560180664062	0.0036849699020385742	0.09818350219726563	0.8978159790039062	-0.02448699951171875	0.09737249755859376	0.8951840209960937	-0.06148199844360352	0.08846669769287109	0.914156982421875	0.0004907490015029901	0.12484500122070312	0.895343994140625	-0.017861299514770508	0.11949099731445313	0.903822998046875	-0.03501490020751953	0.11362100219726562	0.911510009765625	-0.05906240081787109	0.10212200164794921	0.9278619995117188	-0.09952020263671875	0.05701240158081055	0.9819349975585937
45	1.5	-0.02426700019836426	0.0009757919907569881	0.8815490112304688	-0.03600839996337891	0.012422699928283692	0.90668701171875	-0.05105099868774414	0.021222000122070313	0.9347109985351563	-0.06745089721679688	0.041283798217773435	0.96202001953125	0.03134119987487793	0.05952920150756836	0.8860349731445313	0.00846263027191162	0.05625210189819336	0.8833670043945312	-0.015762999534606935	0.0532775993347168	0.8822860107421875	-0.054751598358154296	0.04891460037231445	0.9023779907226562	0.03256269836425781	0.08185369873046874	0.900052001953125	0.010690699577331543	0.08121890258789062	0.8913809814453125	-0.01876810073852539	0.08006369781494141	0.8853690185546875	-0.060020301818847654	0.072341796875	0.9041489868164062	0.024821100234985353	0.10024400329589844	0.9020919799804688	0.0027351300716400143	0.10096099853515625	0.8967849731445312	-0.025636999130249024	0.09993589782714844	0.8943049926757812	-0.062195499420166014	0.09059220123291016	0.91402001953125	-0.000624522984027862	0.12735399627685548	0.894760009765625	-0.019013399124145507	0.12206300354003906	0.9032930297851562	-0.03622499847412109	0.11613700103759765	0.9109240112304687	-0.059652999877929686	0.10427999877929688	0.92764599609375	-0.09903170013427734	0.05862710189819336	0.9819719848632813
46	1.5333333333333334	-0.022265800476074217	0.0045940899848937984	0.8813270263671875	-0.03478530120849609	0.015383999824523925	0.9065130004882812	-0.050284698486328126	0.023452299118041992	0.9343759765625	-0.0671803970336914	0.042963401794433594	0.9615	0.029995800018310547	0.062484500885009765	0.8844530029296875	0.007172800064086914	0.059026298522949217	0.8820050048828125	-0.016982500076293944	0.05580509948730469	0.8809869995117188	-0.0553666000366211	0.05069879913330078	0.9017039794921875	0.03099329948425293	0.08431999969482422	0.8991079711914063	0.009210379600524902	0.0836946029663086	0.890260986328125	-0.020229000091552735	0.0823927001953125	0.88422998046875	-0.06095600128173828	0.07412850189208985	0.9036909790039063	0.02351650047302246	0.10231500244140625	0.9017960205078125	0.001412179946899414	0.10310900115966797	0.8962490234375	-0.026956300735473632	0.10214399719238282	0.8936699829101562	-0.06300540161132813	0.09228359985351563	0.9136060180664063	-0.0015662599802017212	0.12908599853515626	0.8944979858398437	-0.020069799423217773	0.1239020004272461	0.90289501953125	-0.037209300994873046	0.11807399749755859	0.9104910278320313	-0.060668701171875	0.10595400238037109	0.9273090209960938	-0.0988052978515625	0.05963909912109375	0.9822109985351563
47	1.5666666666666667	-0.020039899826049805	0.007837570190429688	0.8817459716796875	-0.033192100524902346	0.018087299346923828	0.906572021484375	-0.04928760147094727	0.025559499740600587	0.9344130249023438	-0.06681849670410156	0.044340499877929686	0.9614149780273438	0.02862619972229004	0.06548159790039063	0.8828740234375	0.005768360137939453	0.06173979949951172	0.8804739990234375	-0.018292200088500975	0.05816749954223633	0.8796320190429687	-0.05605989837646484	0.052152400970458986	0.901198974609375	0.02969179916381836	0.08705210113525391	0.8976599731445313	0.007869760036468505	0.08611869812011719	0.8889970092773437	-0.021569799423217774	0.08455500030517578	0.8833049926757812	-0.06201480102539063	0.07551699829101563	0.9031489868164062	0.02215789985656738	0.10481800079345703	0.9003350219726562	-4.531979933381e-05	0.10531700134277344	0.8951599731445312	-0.02842580032348633	0.10397299957275391	0.8929609985351562	-0.0642437973022461	0.09353769683837891	0.9130130004882813	-0.003196379899978637	0.13110299682617188	0.8935440063476563	-0.021582399368286133	0.1256510009765625	0.9020490112304688	-0.03873550033569336	0.1195989990234375	0.9098499755859375	-0.06203079986572266	0.10713700103759766	0.9266099853515625	-0.09891290283203125	0.06058029937744141	0.981864013671875
